# xmcd
#
# Track frame offsets: 
#        150
#        15947
#        34050
#        52327
#        69367
#        97557
#        116462
#        142942
#        164307
#        195070
#        211650
#        227477
#
# Disc length: 3366 seconds
#
# Revision: 0
# Processed by: cddbd v1.5.1PL0 Copyright (c) Steve Scherf et al.
# Submitted via: ExactAudioCopy v0.95a5
#
DISCID=840d240c
DTITLE=Chris Beard - Barwalkin'
DYEAR=1997
DGENRE=Modern Blues
TTITLE0=You Ain't All That
TTITLE1=Barwalkin'
TTITLE2=Everything Man
TTITLE3=I'm Your Man
TTITLE4=All Night Lng
TTITLE5=Caught Up
TTITLE6=I Had A Dream
TTITLE7=Get Yo Self A Life
TTITLE8=Delivery Man
TTITLE9=It's About Time
TTITLE10=Playing The Blues For A Living
TTITLE11=Baby, I Need It All
EXTD=
EXTT0=
EXTT1=
EXTT2=
EXTT3=
EXTT4=
EXTT5=
EXTT6=
EXTT7=
EXTT8=
EXTT9=
EXTT10=
EXTT11=
PLAYORDER=
